<svg width="175" height="16" viewBox="0 0 175 16" fill="none" xmlns="http://www.w3.org/2000/svg">
<path d="M9.52218 1.79478C53.3612 1.79478 97.2003 1.79478 141.039 1.79478C151.259 1.79478 181.392 2.01636 171.528 3.09701C158.123 4.56556 142.503 4.60994 128.872 4.76309C89.1686 5.20922 49.2523 4.33269 10.0429 1.73733C9.17914 1.68015 -5.08229 1.10536 4.03046 1.10536C31.2192 1.10536 58.5954 0.724222 85.7435 1.41177C87.8395 1.46485 126.672 3.06243 107.048 4.74394C91.4321 6.08194 75.1906 6.39329 59.3264 6.92709C55.1579 7.06736 43.134 6.80236 46.8753 7.55906C53.2547 8.84932 61.2863 9.37353 68.2268 9.91456C73.0108 10.2875 83.871 9.9481 87.6372 11.37C88.2883 11.6158 75.1871 13.0469 74.1446 13.151C73.8029 13.1851 64.6513 14.2828 63.0678 14.2828" stroke="#307FE2" stroke-width="1.5" stroke-linecap="round"/>
</svg>
