<svg width="26" height="31" viewBox="0 0 26 31" fill="none" xmlns="http://www.w3.org/2000/svg">
<mask id="path-1-outside-1_7_17540" maskUnits="userSpaceOnUse" x="-0.101028" y="0.5" width="26" height="31" fill="black">
<rect fill="white" x="-0.101028" y="0.5" width="26" height="31"/>
<path d="M5.36866 29.82C4.16866 29.82 3.31533 29.6467 2.80866 29.3C2.30199 28.9267 1.99533 28.46 1.88866 27.9C1.78199 27.3133 1.72866 26.7267 1.72866 26.14V5.5C1.72866 4.91333 1.78199 4.34 1.88866 3.78C1.99533 3.22 2.30199 2.76667 2.80866 2.42C3.31533 2.04666 4.18199 1.86 5.40866 1.86H13.4487C14.462 1.86 15.5553 2.07333 16.7287 2.5C17.902 2.9 19.0087 3.52667 20.0487 4.38C21.0887 5.23333 21.942 6.3 22.6087 7.58C23.2753 8.86 23.6087 10.38 23.6087 12.14C23.6087 13.3667 23.422 14.5133 23.0487 15.58C22.702 16.6467 22.1687 17.62 21.4487 18.5C20.7553 19.3533 19.902 20.1133 18.8887 20.78C17.902 21.42 16.7687 21.9267 15.4887 22.3H9.04866V26.18C9.04866 26.7667 8.99533 27.34 8.88866 27.9C8.78199 28.46 8.47533 28.9267 7.96866 29.3C7.46199 29.6467 6.59533 29.82 5.36866 29.82ZM22.1287 28.86C20.9287 29.7667 19.982 30.1267 19.2887 29.94C18.5953 29.78 17.8487 29.1667 17.0487 28.1L9.68866 18.1L18.0087 17.06L22.9687 23.74C23.502 24.5133 23.8353 25.1667 23.9687 25.7C24.1287 26.2333 24.062 26.74 23.7687 27.22C23.4753 27.7 22.9287 28.2467 22.1287 28.86ZM9.04866 15.02H13.4487C13.6887 15.02 13.9687 14.98 14.2887 14.9C14.6353 14.7933 14.9553 14.6333 15.2487 14.42C15.542 14.18 15.782 13.8733 15.9687 13.5C16.182 13.1267 16.2887 12.66 16.2887 12.1C16.2887 11.54 16.1553 11.0467 15.8887 10.62C15.622 10.1667 15.262 9.82 14.8087 9.58C14.382 9.31333 13.902 9.18 13.3687 9.18H9.04866V15.02Z"/>
</mask>
<path d="M2.80866 29.3L2.21546 30.1051L2.22954 30.1154L2.24398 30.1253L2.80866 29.3ZM1.88866 27.9L0.904755 28.0789L0.906321 28.0871L1.88866 27.9ZM1.88866 3.78L2.871 3.96711V3.96711L1.88866 3.78ZM2.80866 2.42L3.37334 3.24531L3.38778 3.23543L3.40186 3.22505L2.80866 2.42ZM16.7287 2.5L16.3869 3.43979L16.3964 3.44325L16.406 3.44651L16.7287 2.5ZM20.0487 4.38L20.683 3.60693L20.0487 4.38ZM22.6087 7.58L23.4956 7.11806V7.11806L22.6087 7.58ZM23.0487 15.58L22.1048 15.2496L22.1011 15.2602L22.0976 15.2709L23.0487 15.58ZM21.4487 18.5L20.6747 17.8668L20.6725 17.8694L21.4487 18.5ZM18.8887 20.78L19.4329 21.619L19.4383 21.6154L18.8887 20.78ZM15.4887 22.3V23.3H15.6315L15.7687 23.26L15.4887 22.3ZM9.04866 22.3V21.3H8.04866V22.3H9.04866ZM8.88866 27.9L9.871 28.0871L8.88866 27.9ZM7.96866 29.3L8.53334 30.1253L8.54778 30.1154L8.56186 30.1051L7.96866 29.3ZM22.1287 28.86L22.7315 29.6579L22.7371 29.6536L22.1287 28.86ZM19.2887 29.94L19.5486 28.9744L19.5312 28.9697L19.5135 28.9656L19.2887 29.94ZM17.0487 28.1L16.2432 28.6928L16.2487 28.7L17.0487 28.1ZM9.68866 18.1L9.56462 17.1077L7.87238 17.3193L8.88328 18.6928L9.68866 18.1ZM18.0087 17.06L18.8115 16.4639L18.4637 15.9953L17.8846 16.0677L18.0087 17.06ZM22.9687 23.74L23.7919 23.1723L23.782 23.1579L23.7715 23.1439L22.9687 23.74ZM23.9687 25.7L22.9985 25.9425L23.0042 25.9651L23.0108 25.9873L23.9687 25.7ZM23.7687 27.22L22.9154 26.6986L23.7687 27.22ZM9.04866 15.02H8.04866V16.02H9.04866V15.02ZM14.2887 14.9L14.5312 15.8701L14.5572 15.8637L14.5827 15.8558L14.2887 14.9ZM15.2487 14.42L15.8368 15.2287L15.8599 15.212L15.8819 15.194L15.2487 14.42ZM15.9687 13.5L15.1004 13.0039L15.0866 13.028L15.0742 13.0528L15.9687 13.5ZM15.8887 10.62L15.0267 11.127L15.0335 11.1386L15.0407 11.15L15.8887 10.62ZM14.8087 9.58L14.2787 10.428L14.3091 10.447L14.3408 10.4638L14.8087 9.58ZM9.04866 9.18V8.18H8.04866V9.18H9.04866ZM5.36866 28.82C4.209 28.82 3.61758 28.6418 3.37334 28.4747L2.24398 30.1253C3.01307 30.6515 4.12832 30.82 5.36866 30.82V28.82ZM3.40186 28.4949C3.07526 28.2543 2.92542 27.9986 2.871 27.7129L0.906321 28.0871C1.06523 28.9214 1.52872 29.599 2.21546 30.1051L3.40186 28.4949ZM2.87253 27.7211C2.77642 27.1925 2.72866 26.6657 2.72866 26.14H0.728659C0.728659 26.7876 0.787567 27.4342 0.904789 28.0789L2.87253 27.7211ZM2.72866 26.14V5.5H0.728659V26.14H2.72866ZM2.72866 5.5C2.72866 4.97429 2.77642 4.46366 2.871 3.96711L0.906321 3.59289C0.787569 4.21633 0.728659 4.85237 0.728659 5.5H2.72866ZM2.871 3.96711C2.92418 3.68791 3.06622 3.45544 3.37334 3.24531L2.24397 1.59469C1.53776 2.07789 1.06647 2.75209 0.90632 3.59289L2.871 3.96711ZM3.40186 3.22505C3.6369 3.05186 4.22417 2.86 5.40866 2.86V0.859999C4.13982 0.859999 2.99375 1.04147 2.21546 1.61494L3.40186 3.22505ZM5.40866 2.86H13.4487V0.859999H5.40866V2.86ZM13.4487 2.86C14.3219 2.86 15.2986 3.04404 16.3869 3.43979L17.0704 1.56021C15.812 1.10262 14.6021 0.859999 13.4487 0.859999V2.86ZM16.406 3.44651C17.4566 3.80467 18.4591 4.36926 19.4143 5.15307L20.683 3.60693C19.5582 2.68407 18.3474 1.99533 17.0513 1.55349L16.406 3.44651ZM19.4143 5.15307C20.3426 5.91471 21.1128 6.87281 21.7217 8.04193L23.4956 7.11806C22.7712 5.72719 21.8347 4.55196 20.683 3.60693L19.4143 5.15307ZM21.7217 8.04193C22.2995 9.15128 22.6087 10.506 22.6087 12.14H24.6087C24.6087 10.254 24.2511 8.56872 23.4956 7.11806L21.7217 8.04193ZM22.6087 12.14C22.6087 13.2638 22.4379 14.2979 22.1048 15.2496L23.9925 15.9103C24.4061 14.7288 24.6087 13.4695 24.6087 12.14H22.6087ZM22.0976 15.2709C21.7899 16.2178 21.3172 17.0815 20.6747 17.8668L22.2226 19.1332C23.0202 18.1585 23.6141 17.0755 23.9997 15.8891L22.0976 15.2709ZM20.6725 17.8694C20.0501 18.6355 19.2756 19.3284 18.339 19.9446L19.4383 21.6154C20.5284 20.8982 21.4606 20.0711 22.2248 19.1306L20.6725 17.8694ZM18.3445 19.941C17.4496 20.5215 16.4075 20.9904 15.2087 21.34L15.7687 23.26C17.1299 22.863 18.3544 22.3185 19.4329 21.619L18.3445 19.941ZM15.4887 21.3H9.04866V23.3H15.4887V21.3ZM8.04866 22.3V26.18H10.0487V22.3H8.04866ZM8.04866 26.18C8.04866 26.7057 8.0009 27.2163 7.90632 27.7129L9.871 28.0871C9.98975 27.4637 10.0487 26.8276 10.0487 26.18H8.04866ZM7.90632 27.7129C7.8519 27.9986 7.70205 28.2543 7.37546 28.4949L8.56186 30.1051C9.2486 29.599 9.71209 28.9214 9.871 28.0871L7.90632 27.7129ZM7.40398 28.4747C7.16205 28.6402 6.56052 28.82 5.36866 28.82V30.82C6.63013 30.82 7.76194 30.6531 8.53334 30.1253L7.40398 28.4747ZM21.5258 28.0621C20.9685 28.4832 20.5164 28.741 20.1632 28.8753C19.8084 29.0102 19.6238 28.9946 19.5486 28.9744L19.0287 30.9056C19.6468 31.072 20.2823 30.9698 20.8741 30.7447C21.4676 30.519 22.0888 30.1435 22.7315 29.6579L21.5258 28.0621ZM19.5135 28.9656C19.1796 28.8886 18.6154 28.5223 17.8487 27.5L16.2487 28.7C17.0819 29.811 18.011 30.6714 19.0638 30.9144L19.5135 28.9656ZM17.854 27.5072L10.494 17.5072L8.88328 18.6928L16.2433 28.6928L17.854 27.5072ZM9.81269 19.0923L18.1327 18.0523L17.8846 16.0677L9.56462 17.1077L9.81269 19.0923ZM17.2058 17.6561L22.1658 24.3361L23.7715 23.1439L18.8115 16.4639L17.2058 17.6561ZM22.1454 24.3077C22.6519 25.0421 22.9078 25.5797 22.9985 25.9425L24.9388 25.4575C24.7628 24.7536 24.3521 23.9845 23.7919 23.1723L22.1454 24.3077ZM23.0108 25.9873C23.0882 26.2453 23.0623 26.4582 22.9154 26.6986L24.6219 27.7414C25.0617 27.0218 25.1691 26.2214 24.9265 25.4127L23.0108 25.9873ZM22.9154 26.6986C22.7182 27.0212 22.2874 27.4782 21.5202 28.0664L22.7371 29.6536C23.5699 29.0151 24.2324 28.3788 24.6219 27.7414L22.9154 26.6986ZM9.04866 16.02H13.4487V14.02H9.04866V16.02ZM13.4487 16.02C13.7944 16.02 14.1592 15.9632 14.5312 15.8701L14.0461 13.9299C13.7782 13.9968 13.5829 14.02 13.4487 14.02V16.02ZM14.5827 15.8558C15.0349 15.7167 15.4543 15.507 15.8368 15.2287L14.6605 13.6113C14.4564 13.7597 14.2358 13.87 13.9946 13.9442L14.5827 15.8558ZM15.8819 15.194C16.295 14.856 16.6198 14.4338 16.8631 13.9472L15.0742 13.0528C14.9442 13.3129 14.789 13.504 14.6154 13.646L15.8819 15.194ZM16.8369 13.9961C17.1589 13.4327 17.2887 12.7828 17.2887 12.1H15.2887C15.2887 12.5372 15.2051 12.8206 15.1004 13.0039L16.8369 13.9961ZM17.2887 12.1C17.2887 11.3744 17.1136 10.6932 16.7367 10.09L15.0407 11.15C15.197 11.4002 15.2887 11.7056 15.2887 12.1H17.2887ZM16.7506 10.113C16.3925 9.50425 15.8979 9.02517 15.2765 8.69621L14.3408 10.4638C14.6261 10.6148 14.8515 10.8291 15.0267 11.127L16.7506 10.113ZM15.3387 8.732C14.7434 8.35995 14.0777 8.18 13.3687 8.18V10.18C13.7263 10.18 14.0206 10.2667 14.2787 10.428L15.3387 8.732ZM13.3687 8.18H9.04866V10.18H13.3687V8.18ZM8.04866 9.18V15.02H10.0487V9.18H8.04866Z" fill="white" mask="url(#path-1-outside-1_7_17540)"/>
</svg>
